<?xml version="1.0" standalone="no"?>
<!DOCTYPE svg PUBLIC "-//W3C//DTD SVG 20010904//EN"
 "http://www.w3.org/TR/2001/REC-SVG-20010904/DTD/svg10.dtd">
<svg version="1.0" xmlns="http://www.w3.org/2000/svg"
 width="1000.000000pt" height="1000.000000pt" viewBox="0 0 1000.000000 1000.000000"
 preserveAspectRatio="xMidYMid meet">
<metadata>
Created by potrace 1.14, written by Peter Selinger 2001-2017
</metadata>
<g transform="translate(0.000000,1000.000000) scale(0.100000,-0.100000)"
fill="#000000" stroke="none">
<path d="M6198 9325 c-2 -1 -32 -6 -68 -9 -88 -9 -126 -15 -185 -27 -27 -6
-61 -13 -75 -15 -102 -20 -316 -97 -440 -159 -459 -230 -742 -578 -848 -1040
-40 -173 -47 -246 -47 -475 0 -234 7 -312 45 -475 21 -89 63 -222 87 -275 31
-70 86 -176 104 -202 11 -14 19 -29 19 -32 0 -8 106 -161 149 -216 20 -25 41
-51 46 -58 6 -7 62 -66 125 -131 138 -141 200 -194 381 -324 13 -9 51 -37 84
-60 129 -93 530 -356 635 -417 188 -108 656 -418 825 -545 379 -287 594 -511
708 -740 31 -61 82 -192 92 -235 19 -81 25 -112 30 -155 3 -27 8 -63 11 -78 7
-32 7 -302 0 -332 -2 -11 -7 -47 -11 -80 -47 -416 -273 -739 -650 -928 -208
-104 -406 -145 -685 -141 -102 1 -196 4 -210 7 -14 3 -43 8 -65 11 -255 32
-541 152 -719 299 -93 77 -108 92 -170 163 -86 100 -84 98 -157 214 -161 257
-264 508 -349 850 -11 41 -21 86 -24 100 -3 14 -10 50 -16 80 -6 30 -13 71
-16 90 -2 19 -9 60 -14 90 -12 71 -18 118 -26 213 -3 43 -7 86 -9 95 -2 9 -4
27 -4 40 -1 22 -2 23 -118 20 l-116 -3 -3 -595 c-2 -563 -11 -1204 -19 -1425
-2 -55 -7 -164 -10 -242 -5 -115 -4 -143 7 -144 85 -3 202 -3 208 1 4 3 11 23
14 45 12 82 49 231 68 275 71 165 195 158 503 -26 292 -176 616 -298 885 -334
47 -6 114 -15 150 -20 68 -9 570 -6 630 3 19 4 62 9 94 11 33 3 91 12 130 20
39 8 82 17 96 19 14 3 68 17 120 31 558 156 996 498 1207 942 159 337 218 802
153 1212 -6 36 -13 68 -14 71 -2 3 -7 24 -10 46 -11 65 -74 242 -122 342 -122
251 -364 549 -604 745 -36 29 -67 55 -70 59 -11 12 -250 189 -360 266 -180
125 -574 379 -678 438 -10 6 -40 24 -67 41 -28 17 -117 73 -200 124 -334 208
-677 440 -787 533 -190 160 -361 370 -441 538 -31 66 -75 198 -83 249 -3 19
-8 38 -10 42 -17 27 -24 308 -11 433 30 299 203 593 452 769 235 165 459 226
805 221 96 -2 184 -5 195 -8 11 -2 40 -8 65 -12 65 -10 239 -55 280 -72 105
-45 243 -119 305 -165 316 -234 580 -693 691 -1202 13 -60 33 -166 38 -206 3
-25 8 -54 10 -65 2 -11 7 -56 11 -100 4 -44 9 -83 11 -87 6 -9 224 -10 225 -1
0 5 2 184 4 398 3 387 13 932 20 1115 10 251 23 464 30 508 4 22 2 22 -113 22
-118 0 -118 0 -120 -24 -4 -50 -45 -222 -64 -271 -77 -197 -193 -192 -543 24
-311 193 -496 271 -735 311 -30 5 -73 12 -95 16 -39 7 -560 15 -567 9z"/>
<path d="M1432 9121 l-1 -101 37 -1 c20 -1 46 -3 57 -4 11 -1 52 -5 90 -9 39
-3 81 -8 95 -11 14 -2 43 -6 64 -10 144 -21 262 -71 326 -136 74 -77 120 -218
137 -424 9 -110 9 -6066 0 -6185 -4 -47 -9 -121 -12 -165 -4 -44 -8 -91 -10
-105 -2 -14 -7 -52 -10 -85 -26 -262 -116 -607 -204 -783 -73 -148 -101 -190
-186 -289 -207 -239 -503 -372 -885 -398 -25 -2 -48 -4 -52 -4 -5 -1 -8 -44
-8 -96 l0 -95 108 5 c163 8 302 24 400 46 26 5 65 13 87 16 138 19 483 164
642 270 373 248 659 606 813 1018 60 160 93 282 145 535 1 8 6 35 9 60 3 25 8
54 10 65 2 11 7 45 11 75 3 30 8 66 10 80 2 14 7 54 10 90 4 36 8 81 10 100 3
32 8 94 20 260 2 30 7 129 10 220 4 91 9 210 12 265 3 55 7 939 9 1965 5 2138
10 3142 17 3185 2 17 8 55 12 85 10 75 42 176 71 226 30 50 88 106 140 132 46
23 168 58 239 68 28 3 59 8 70 10 11 2 54 7 95 10 41 4 84 8 95 9 11 1 34 3
50 4 l30 1 0 98 0 97 -95 -1 c-52 -1 -205 -5 -340 -10 -485 -16 -1662 -9
-2031 12 l-96 5 -1 -100z"/>
</g>
</svg>
